<?xml version="1.0" encoding="UTF-8"?><svg version="1.1" xmlns="http://www.w3.org/2000/svg" width="1024" height="1024"><path d="M0 0 C337.92 0 675.84 0 1024 0 C1024 337.92 1024 675.84 1024 1024 C686.08 1024 348.16 1024 0 1024 C0 686.08 0 348.16 0 0 Z " fill="#06AC5C" transform="translate(0,0)"/><path d="M0 0 C1.44979899 1.37234397 2.89913492 2.74530159 4.33300781 4.13427734 C5.48019142 5.24480414 6.63394797 6.34855712 7.79199219 7.44775391 C17.96742248 17.12419193 26.72359201 27.30987669 34.9375 38.6875 C35.576875 39.54214844 36.21625 40.39679688 36.875 41.27734375 C44.48941188 51.69224846 51.17379921 63.16009842 56.9375 74.6875 C69.8075 75.0175 82.6775 75.3475 95.9375 75.6875 C95.9375 105.0575 95.9375 134.4275 95.9375 164.6875 C54.0275 164.6875 12.1175 164.6875 -31.0625 164.6875 C-31.7225 156.1075 -32.3825 147.5275 -33.0625 138.6875 C-37.45400867 109.4107755 -51.71601101 85.40931125 -75.3125 67.5 C-90.84963547 56.77091791 -107.54949685 49.57647982 -125.5 43.9375 C-126.37986572 43.65567871 -127.25973145 43.37385742 -128.16625977 43.08349609 C-144.40982591 38.17186629 -160.49509895 37.14142738 -177.375 37.25 C-178.37941132 37.25304138 -179.38382263 37.25608276 -180.41867065 37.25921631 C-221.70717618 37.44347967 -265.19118447 45.33720599 -297.0625 73.6875 C-297.77019531 74.42355469 -298.47789062 75.15960938 -299.20703125 75.91796875 C-301.0625 77.6875 -301.0625 77.6875 -303.0625 77.6875 C-303.31773437 78.26757812 -303.57296875 78.84765625 -303.8359375 79.4453125 C-305.18474635 81.91096943 -306.72607664 83.55419003 -308.6875 85.5625 C-328.23511754 107.19944622 -332.71746915 135.8306974 -331.34179688 163.88330078 C-330.71128148 172.47131725 -328.73571884 180.52934457 -326.0625 188.6875 C-325.68996094 189.89921875 -325.31742188 191.1109375 -324.93359375 192.359375 C-316.12208005 218.02636264 -295.56902308 235.76728244 -272.0625 247.6875 C-259.02104333 254.05803346 -245.53107129 258.8050711 -231.76171875 263.328125 C-229.66599463 264.02380419 -227.57052537 264.72025153 -225.47529602 265.41741943 C-220.01364125 267.23228855 -214.54839398 269.03608889 -209.08233643 270.83764648 C-204.63580474 272.30524545 -200.19190845 273.78072724 -195.74812603 275.25662613 C-171.95281986 283.22389743 -171.95281986 283.22389743 -148.02580261 290.7807312 C-18.32073658 330.4704026 -18.32073658 330.4704026 25.9375 369.6875 C27.16919922 370.75677734 27.16919922 370.75677734 28.42578125 371.84765625 C30.96795711 374.0893572 33.45971164 376.37489753 35.9375 378.6875 C36.79988281 379.48414063 37.66226562 380.28078125 38.55078125 381.1015625 C67.52658584 408.86130583 85.28349138 448.14410543 90.6526947 487.60437012 C90.90925662 489.48092155 91.18190956 491.35525611 91.45654297 493.22924805 C92.10514163 498.47832023 92.13755063 503.71661648 92.17578125 509 C92.183853 510.08595459 92.19192474 511.17190918 92.20024109 512.29077148 C92.21403021 514.59031609 92.22477533 516.88988072 92.23266602 519.18945312 C92.24408037 521.49290155 92.26436015 523.79632581 92.29418945 526.09960938 C92.8752015 571.10045337 79.09873591 614.56834197 51.9375 650.6875 C51.46683105 651.31897949 50.99616211 651.95045898 50.51123047 652.60107422 C37.71494255 669.56959719 22.38680694 685.47861535 4.9375 697.6875 C4.16325684 698.23067871 3.38901367 698.77385742 2.59130859 699.33349609 C-64.07956096 745.69268092 -144.30528773 759.13466397 -224.125 750.9375 C-224.90726959 750.85908875 -225.68953918 750.78067749 -226.49551392 750.69989014 C-237.8991919 749.52371723 -248.92355386 747.36884467 -260.0625 744.6875 C-261.12944092 744.43838867 -262.19638184 744.18927734 -263.2956543 743.93261719 C-303.41178698 734.43627593 -339.23614279 716.1728902 -369.0625 687.6875 C-369.98804688 686.81480469 -370.91359375 685.94210937 -371.8671875 685.04296875 C-383.65180517 673.64226922 -392.80107265 660.78607915 -401.0625 646.6875 C-401.5059375 645.93758789 -401.949375 645.18767578 -402.40625 644.41503906 C-412.43548443 627.31263006 -419.79339679 609.49480963 -426.0625 590.6875 C-439.2625 590.3575 -452.4625 590.0275 -466.0625 589.6875 C-466.0625 559.9875 -466.0625 530.2875 -466.0625 499.6875 C-422.8325 499.6875 -379.6025 499.6875 -335.0625 499.6875 C-334.7325 509.2575 -334.4025 518.8275 -334.0625 528.6875 C-333.54098395 534.42417655 -332.94870913 540.01652771 -332.0625 545.6875 C-331.94036133 546.53328613 -331.81822266 547.37907227 -331.69238281 548.25048828 C-327.41033529 577.48349795 -314.71991642 600.54603815 -291.53515625 619.18359375 C-275.51859237 631.08147768 -256.32949592 639.68984026 -237.0625 644.6875 C-236.43150391 644.8520166 -235.80050781 645.0165332 -235.15039062 645.18603516 C-229.82280308 646.54597198 -224.46490896 647.66799778 -219.0625 648.6875 C-218.26730957 648.84138184 -217.47211914 648.99526367 -216.65283203 649.15380859 C-201.71651593 651.89455297 -186.76039236 651.9777518 -171.625 652 C-170.14489441 652.00537781 -170.14489441 652.00537781 -168.6348877 652.01086426 C-124.87592579 652.09629903 -80.0665641 641.37306769 -48.0625 609.6875 C-36.73048621 597.42123808 -29.04971631 582.51534965 -24.0625 566.6875 C-23.85077148 566.03958496 -23.63904297 565.39166992 -23.42089844 564.72412109 C-20.14132947 554.27991533 -19.69629474 543.88088661 -19.6875 533 C-19.68484131 531.07692017 -19.68484131 531.07692017 -19.68212891 529.11499023 C-20.05316197 497.26526724 -31.82107201 472.24519423 -54.31103516 450.01904297 C-77.25160097 428.2156644 -107.13127431 416.34652932 -136.46679688 405.96582031 C-139.66790816 404.82778265 -142.85868848 403.66581293 -146.046875 402.4921875 C-157.85015201 398.19783014 -169.79614497 394.76656514 -181.94921875 391.61645508 C-189.54760236 389.64279236 -197.07115556 387.53388846 -204.5625 385.1875 C-213.3360565 382.44576359 -222.1715838 380.01833728 -231.0625 377.6875 C-242.11305258 374.78623172 -253.05897965 371.6606826 -263.96484375 368.2578125 C-267.09076058 367.28339518 -270.21944624 366.35151346 -273.37890625 365.4921875 C-319.33920978 352.93610697 -367.75586555 327.22848908 -397.0625 288.6875 C-397.78695312 287.77871094 -398.51140625 286.86992187 -399.2578125 285.93359375 C-424.49565274 253.6168471 -438.03906971 211.16402619 -438.265625 170.33203125 C-438.27272995 169.47610886 -438.2798349 168.62018646 -438.28715515 167.73832703 C-438.5093049 133.1035538 -435.02404746 101.43818094 -420.0625 69.6875 C-419.74168457 68.98979492 -419.42086914 68.29208984 -419.09033203 67.57324219 C-395.25599905 15.98262401 -347.71796685 -20.48292078 -295.48583984 -40.32373047 C-270.66839422 -49.4230299 -245.33473263 -55.43634358 -219.0625 -58.3125 C-217.66136963 -58.46912109 -217.66136963 -58.46912109 -216.23193359 -58.62890625 C-139.85136724 -66.8231887 -58.59175516 -52.6773788 0 0 Z " fill="#FEFEFE" transform="translate(706.0625,153.3125)"/></svg>
